<svg width="84" height="78" viewBox="0 0 84 78" fill="none" xmlns="http://www.w3.org/2000/svg">
<g clip-path="url(#clip0_8_76)">
<path d="M33.7 56.5L28.1 53.4C26.7 52.6 25.8 51.2 25.8 49.6V37.5C25.8 35.9 26.7 34.5 28.1 33.7L39.3 27.6C40 27.2 40.8 27 41.6 27V0C39.5 0 37.4 0.5 35.6 1.5L6 17.6C2.3 19.6 0 23.4 0 27.5V59.6C0 63.7 2.3 67.5 6 69.5L20.7 77.5L33.7 56.5Z" fill="#F04E3E"/>
<path d="M77 17.6L47.6 1.5C45.7 0.5 43.6 0 41.6 0V27C42.4 27 43.2 27.2 43.9 27.6L55 33.7C56.4 34.5 57.3 35.9 57.3 37.5V49.7C57.3 51.3 56.4 52.7 55 53.5L49.4 56.6L62.3 77.7L77 69.7C80.7 67.7 83 63.9 83 59.8V27.5C83.1 23.4 80.8 19.6 77 17.6Z" fill="#E8C446"/>
</g>
<defs>
<clipPath id="clip0_8_76">
<rect width="83.1" height="77.6" fill="white"/>
</clipPath>
</defs>
</svg>
